<svg width="76" height="76" viewBox="0 0 76 76" fill="none" xmlns="http://www.w3.org/2000/svg">
<path d="M74.25 25.5H47.4031C46.7522 17.1364 45.7612 8.81641 45.5367 6.97172L47.868 2.30906C47.9633 2.11849 48.0083 1.90672 47.9987 1.69386C47.9891 1.48101 47.9253 1.27413 47.8133 1.09288C47.7013 0.911622 47.5448 0.76201 47.3587 0.658245C47.1726 0.55448 46.9631 0.500007 46.75 0.5H1.75C1.53693 0.500007 1.3274 0.55448 1.1413 0.658245C0.9552 0.76201 0.798716 0.911622 0.686704 1.09288C0.574693 1.27413 0.510872 1.48101 0.501304 1.69386C0.491735 1.90672 0.536735 2.11849 0.632031 2.30906L2.96344 6.97187C2.62172 9.78266 0.5 27.6514 0.5 38C0.5 48.3486 2.62172 66.2173 2.96344 69.0281L0.632031 73.6909C0.536735 73.8815 0.491735 74.0933 0.501304 74.3061C0.510872 74.519 0.574693 74.7259 0.686704 74.9071C0.798716 75.0884 0.9552 75.238 1.1413 75.3418C1.3274 75.4455 1.53693 75.5 1.75 75.5H74.25C74.5815 75.5 74.8995 75.3683 75.1339 75.1339C75.3683 74.8995 75.5 74.5815 75.5 74.25V26.75C75.5 26.4185 75.3683 26.1005 75.1339 25.8661C74.8995 25.6317 74.5815 25.5 74.25 25.5ZM44.7275 3L43.4775 5.5H5.0225L3.7725 3H44.7275ZM28 73H3.7725L5.0225 70.5H28V73ZM28 50.2487C26.7705 50.5481 25.4911 50.5804 24.2481 50.3434C27.5659 46.9141 25.2108 43.0711 23.1011 40.6342C24.0303 40.5387 24.9639 40.4939 25.898 40.5C26.6733 40.5 27.3691 40.5228 28.0002 40.5692L28 50.2487ZM22.3906 48.6694C21.2363 49.8237 19.6094 50.3836 17.8083 50.2448C15.9352 50.1008 14.1098 49.2273 12.6677 47.7855C11.2255 46.3436 10.3525 44.5181 10.2084 42.6448C10.0698 40.8444 10.6294 39.2169 11.7839 38.0625C12.4602 37.3862 13.1477 37.0566 13.9217 37.0566C14.3412 37.064 14.7561 37.1457 15.147 37.298C16.4152 37.7641 17.8742 38.8495 19.7388 40.7142C24.3992 45.375 23.7672 47.2922 22.3906 48.6694ZM28 38.0641C27.3566 38.0217 26.6611 38 25.8978 38C23.8911 38 22.3066 38.1453 21.0016 38.4531C19.0977 36.6202 17.4995 35.5 16.0091 34.9531C13.7848 34.1355 11.7122 34.6 10.0155 36.2969C8.33688 37.9738 7.52 40.2969 7.71531 42.837C7.90516 45.3047 9.03594 47.6898 10.8995 49.5533C12.7631 51.4167 15.1483 52.5477 17.6158 52.7375C17.8628 52.7564 18.1076 52.7658 18.3502 52.7658C19.4594 52.7717 20.5591 52.5609 21.5875 52.1452C22.9542 52.7105 24.4188 53.001 25.8978 53C26.6031 52.9999 27.3068 52.9345 28 52.8047V68H5.35781C4.8425 63.6758 3 47.5481 3 38C3 28.4519 4.8425 12.3245 5.35781 8H43.1423C43.4663 10.7139 44.3127 18.0711 44.8955 25.5H34.6166C36.8078 24.1519 38 22.4034 38 20.5C38 18.3323 36.4544 16.3658 33.6478 14.9627C31.1167 13.6969 27.7792 13 24.25 13C20.7208 13 17.3833 13.6969 14.8522 14.9627C12.0456 16.3658 10.5 18.3323 10.5 20.5C10.5 22.6677 12.0456 24.6342 14.8522 26.0373C17.3833 27.3031 20.7208 28 24.25 28C25.505 28.0012 26.7584 27.9102 28 27.7277V38.0641ZM24.25 25.5C17.6202 25.5 13 22.865 13 20.5C13 18.135 17.6202 15.5 24.25 15.5C30.8798 15.5 35.5 18.135 35.5 20.5C35.5 22.865 30.8798 25.5 24.25 25.5ZM63 73H30.5V28H63V73ZM73 73H65.5V28H73V73Z" fill="#1A1A1A"/>
</svg>
