<svg width="66" height="52" viewBox="0 0 66 52" fill="none" xmlns="http://www.w3.org/2000/svg">
<path d="M64.0613 27.8468C63.4039 27.793 62.8302 28.2791 62.7753 28.9353C62.2858 34.7572 59.3836 40.6085 55.1373 44.4252C53.5803 43.188 52.9688 41.1925 52.0294 38.122C51.2476 35.5639 50.2741 32.3802 48.3783 28.4901C46.5698 24.778 43.2092 21.6298 39.7309 19.15C42.3602 17.6138 48.7152 14.7224 58.7335 15.1731C60.669 17.7177 61.9812 20.6018 62.5379 23.6552C62.6428 24.2307 63.1433 24.6337 63.7073 24.6337C63.7787 24.6337 63.8507 24.627 63.9227 24.6141C64.5697 24.4955 64.9982 23.8742 64.8798 23.2259C64.2243 19.6319 62.6422 16.2537 60.3064 13.3158C60.2899 13.2926 60.2716 13.27 60.2527 13.2473C58.1458 10.6165 55.4328 8.34213 52.2351 6.58699C46.3391 3.35008 39.032 1.49893 29.2389 0.76018C19.9823 0.0611824 12.4683 1.07146 6.26711 3.84665C3.37404 5.1413 1.43373 6.92273 0.639054 8.97019C0.632951 8.98609 0.626847 9.00199 0.620744 9.0185C0.42299 9.54198 0.297868 10.082 0.252702 10.6366C0.0616616 12.9734 1.37514 15.4538 3.68105 17.1086C4.94814 18.0186 6.36232 18.6167 7.45302 19.0356C8.06642 19.2723 8.7549 18.9647 8.99049 18.3495C9.22609 17.7349 8.91969 17.0444 8.30568 16.809C7.28883 16.4176 6.10841 15.9173 5.06777 15.1694C3.79091 14.2527 2.47865 12.6315 2.62575 10.8311C2.63246 10.7522 2.64284 10.6678 2.65688 10.5798C8.24281 10.4728 14.588 11.5797 17.5965 12.1832C17.591 12.2872 17.5885 12.3924 17.5885 12.4976C17.5885 15.855 20.315 18.5867 23.6658 18.5867C25.8283 18.5867 27.7295 17.4487 28.8068 15.7394C32.7728 17.5025 42.8259 22.5324 46.239 29.5365C48.0524 33.2583 48.9954 36.3424 49.7528 38.8204C50.6922 41.8915 51.4191 44.268 53.2269 45.9339C50.3589 47.9 46.8768 49.0888 43.4552 49.2374C40.9198 49.3475 38.5358 48.9115 36.3696 47.9422C34.7034 47.1961 33.4516 46.2525 32.6483 45.1364C31.6998 43.8179 31.2732 42.1588 30.8216 40.4024L30.755 40.1431C29.7229 36.1455 28.4247 31.9521 25.9302 28.3666C23.2294 24.4857 19.057 21.2769 13.5278 18.8295C12.9267 18.5629 12.2235 18.8356 11.958 19.4386C11.6925 20.041 11.9641 20.7449 12.5659 21.0115C17.6898 23.2798 21.5289 26.2133 23.9771 29.7309C26.2567 33.007 27.4738 36.9588 28.4497 40.7406L28.5163 40.9981C29.0027 42.8908 29.5062 44.8484 30.7178 46.5313C31.7694 47.9929 33.3441 49.2001 35.3986 50.1199C37.6538 51.1296 40.1026 51.6396 42.6898 51.6396C42.9773 51.6396 43.2672 51.6329 43.5584 51.6206C48.0457 51.4255 52.4426 49.7395 55.9461 46.8732C55.9491 46.8708 55.9522 46.8683 55.9546 46.8659C55.9644 46.8579 55.9741 46.8506 55.9833 46.8432C61.1469 42.5979 64.5722 35.9785 65.1471 29.1353C65.2027 28.4791 64.7162 27.9018 64.0613 27.8468ZM27.3517 12.7679C27.2547 13.4522 27.2284 13.8827 26.6583 14.6686C25.9857 15.5963 24.8956 16.2017 23.6658 16.2017C21.6406 16.2017 19.9915 14.5616 19.9701 12.5373C20.047 11.28 20.5017 10.5847 20.5017 10.5847C21.1499 9.51201 22.3255 8.79345 23.6658 8.79345C25.7044 8.79345 27.3627 10.4556 27.3627 12.4976C27.3627 12.5887 27.3578 12.6786 27.3517 12.7679ZM29.6594 13.5017C29.7138 13.1746 29.7431 12.8394 29.7431 12.4976C29.7431 9.13958 27.0166 6.40781 23.6658 6.40781C21.2549 6.40781 19.1675 7.8217 18.1861 9.86488C15.3626 9.29064 9.51967 8.25101 3.95265 8.18924C4.64418 7.47129 5.683 6.72031 7.23818 6.02437C13.0695 3.4149 20.2075 2.47129 29.0601 3.13848C38.5028 3.85093 45.5036 5.61157 51.0907 8.67909C53.1598 9.81473 55.0037 11.1864 56.5845 12.7391C45.8985 12.7428 39.5972 16.3075 37.5574 17.689C34.4214 15.7015 31.435 14.2796 29.6594 13.5017Z" fill="#1A1A1A"/>
</svg>
