 <svg xmlns="http://www.w3.org/2000/svg" width="22" height="20" viewBox="0 0 21 20">
                        <path d="M3.148 1.238C1.383 2.137.047 4.395.023 6.528 0 8.057.813 10.12 2.074 11.745c.98 1.238 8.02 7.672 8.426 7.672.406 0 7.613-6.602 8.52-7.793 1.168-1.527 1.98-3.59 1.98-4.95 0-1.214-.691-3.081-1.504-4.128-.883-1.14-2.41-1.82-4.082-1.82-1.738 0-2.766.488-3.96 1.918L10.5 3.762l-.953-1.117c-.504-.63-1.313-1.31-1.766-1.528C6.61.56 4.414.605 3.148 1.238Zm3.536.703c1.023.293 2.41 1.7 3.027 3.036.238.53.598.968.789.968.191 0 .574-.484.86-1.09.667-1.433 2.171-2.793 3.269-3.011 2.695-.508 5.18 1.894 5.18 5.05 0 2.208-2.223 5.07-7.207 9.344l-2.102 1.77-2.074-1.77C1.934 10.656.43 8.156 1.55 4.805 2.004 3.496 2.96 2.5 4.199 2.063c1.121-.41 1.41-.438 2.485-.122Zm0 0" fill="#2c2c2c" />
                      </svg>
